<?xml version="1.0" encoding="UTF-8" standalone="no"?>
<!DOCTYPE svg PUBLIC "-//W3C//DTD SVG 1.1//EN" "http://www.w3.org/Graphics/SVG/1.1/DTD/svg11.dtd">
<svg width="100%" height="100%" viewBox="0 0 6000 4800" version="1.1" xmlns="http://www.w3.org/2000/svg" xmlns:xlink="http://www.w3.org/1999/xlink" xml:space="preserve" xmlns:serif="http://www.serif.com/" style="fill-rule:evenodd;clip-rule:evenodd;stroke-linejoin:round;stroke-miterlimit:2;">
    <g transform="matrix(1.323223,0,0,1.323223,-1252.88796,-89.781045)">
        <g transform="matrix(9.483398,0,0,9.483398,-1829,-183.366211)">
            <path d="M683.117,146.415C681.574,155.01 681.125,154.904 679.612,163.52C678.366,170.617 677.939,170.515 676.563,178.514C675.984,181.881 674.185,179.89 672.122,177.882C670.921,176.714 669.538,175.644 668.536,174.465C667.949,173.774 649.528,156.745 647.334,154.682C645.689,153.135 645.198,152.991 643.619,154.617C635.475,163.002 635.874,163.364 627.615,171.619C625.58,173.654 621.203,179.169 616.113,184.081C613.636,186.473 610.264,191.002 605.078,196.057C604.364,196.752 587.369,215.064 585.209,217.197C584.22,218.173 569.564,233.778 568.207,235.223L535.887,269.846C527.236,279.106 527.194,279.036 524.847,281.782C524.185,282.557 521.782,284.915 514.659,292.652C509.029,298.767 508.273,298.456 507.611,298.183C506.229,297.613 504.971,295.577 499.662,291.292C498.969,290.733 490.949,283.528 490.194,282.85C486.479,279.513 486.465,279.548 482.828,276.124C477.415,271.028 477.146,271.351 471.693,266.282C470.304,264.991 462.422,257.785 461.517,257.465C459.666,256.811 372.711,309.887 372.711,309.887C372.711,309.887 456.541,178.14 457.582,176.57C459.08,174.308 460.443,176.48 464.772,180.193C465.462,180.785 465.978,180.949 472.119,186.892C477.47,192.07 477.783,191.707 483.139,196.882C489.502,203.031 489.838,202.635 496.234,208.78C498.558,211.012 498.562,210.98 501.105,212.954C501.551,213.301 501.9,213.572 506.266,217.771C508.186,219.618 508.464,218.216 510.555,216.558C510.929,216.261 515.961,210.923 516.427,210.429C529.825,196.216 529.729,196.13 530.897,194.897C531.287,194.485 531.303,194.514 535.816,189.804C543.101,182.201 542.864,182.004 547.901,176.897C551.211,173.541 554.869,168.989 558.916,164.912C564.651,159.133 564.333,158.848 570.099,153.083C571.723,151.459 571.504,151.144 577.277,145.274C585.317,137.098 584.994,136.823 587.872,133.862C594.537,127.004 594.56,127.054 600.935,119.936C601.164,119.681 601.195,119.721 603.921,116.859C606.202,114.464 603.087,113.15 597.842,108.157C592.454,103.026 592.504,102.998 586.912,98.093C585.71,97.038 585.567,96.517 579.251,90.77C578.25,89.86 578.265,89.847 578.178,89.768C578.03,89.634 576.169,87.946 578.389,87.274C580.713,86.569 584.574,85.694 588.423,84.26C590.37,83.534 634.712,70.227 651.563,64.695C651.731,64.64 655.689,63.637 657.365,63.073C664.029,60.833 666.531,60.043 670.409,59.119C672.068,58.723 676.398,57.013 678.498,56.491C681.583,55.725 681.455,55.366 684.51,54.535C690.034,53.033 694.331,51.524 694.495,51.482C694.985,51.355 698.391,50.473 700.553,49.66C704.3,48.251 703.361,51.097 703.066,52.394C702.885,53.189 702.172,55.122 701.016,61.401C700.182,65.937 700.025,65.89 699.069,70.401C698.634,72.449 697.803,76.968 697.698,77.54C697.222,80.125 696.325,82.609 695.622,87.515C695.42,88.92 691.787,105.587 691.542,106.512C689.71,113.437 690.375,113.577 688.519,120.505C687.577,124.023 687.954,124.081 686.655,129.534C684.65,137.944 685.115,138.022 683.117,146.415ZM672.111,131.453C672.498,128.391 672.438,128.396 673.175,125.416C673.352,124.702 674.812,118.796 675.228,116.447C676.269,110.57 676.735,110.112 677.193,107.445C677.805,103.871 677.772,103.872 677.826,103.562C678.622,99.007 679.696,96.68 680.252,92.464C680.843,87.975 682.581,82.769 683.081,79.434C684.323,71.159 684.832,71.143 684.501,70.5C683.674,68.891 683.135,69.989 677.536,71.624C659.442,76.906 656.362,78.422 651.508,79.537C646.422,80.706 644.8,81.942 641.531,82.647C638.442,83.313 638.569,83.683 635.523,84.584C624.358,87.885 624.357,87.854 623.393,88.161C614.493,90.994 614.448,90.801 605.533,93.562C604.882,93.763 604.812,93.821 604.804,94.512C604.796,95.192 604.827,95.208 605.338,95.634C607.264,97.237 607.213,97.262 609.086,98.944C609.646,99.448 615.611,105.28 616.176,105.833C620.167,109.734 624.555,112.71 624.419,114.489C624.36,115.267 622.567,117.306 618.558,121.552C607.377,133.392 607.497,133.495 606.505,134.505C598.596,142.565 599.181,143.104 593.929,147.948C590.942,150.703 591.237,150.951 585.833,156.813C582.457,160.474 582.291,160.304 579.06,164.086C578.751,164.448 564.128,179.927 562.562,181.559C557.412,186.927 557.421,186.904 552.317,192.328C532.247,213.657 532.12,213.534 530.434,215.443C526.263,220.167 522.446,223.859 520.222,226.268C516.7,230.083 516.749,230.115 516.441,230.445C513.218,233.895 513.294,233.942 511.086,236.052C508.537,238.487 507.832,238.176 505.236,235.792C497.134,228.353 460.872,193.522 460.872,193.522L398.457,283.881C398.457,283.881 459.993,239.051 461.547,239.223C462.927,239.376 471.735,248.145 476.331,251.729C479.353,254.085 479.518,254.601 482.14,256.92C490.446,264.262 490.492,264.187 491.207,264.831C491.724,265.296 492.625,266.23 494.746,268.217C497.886,271.16 497.922,271.083 501.256,273.793C505.75,277.448 506.542,279.454 508.605,278.688C509.437,278.38 519.472,267.032 521.305,265.281C524.966,261.786 528.651,257.29 531.408,254.41C537.42,248.127 537.25,247.993 544.474,240.476C551.596,233.064 551.39,232.897 558.497,225.497C559.839,224.099 568.739,214.483 569.122,214.099C572.627,210.587 572.474,210.467 575.855,206.835L641.471,136.472C643.472,134.331 644.221,132.41 647.046,134.961C647.902,135.734 655.026,142.612 655.7,143.302C659.914,147.62 660.311,147.175 664.502,151.498C668.203,155.314 667.86,150.657 668.415,148.478C669.913,142.595 670.079,139.661 671.442,134.486C671.84,132.975 671.775,132.978 672.111,131.453Z" style="fill:rgb(11,28,47);"/>
        </g>
        <g transform="matrix(9.483398,0,0,9.483398,-1829,-183.366211)">
            <path d="M598.525,222.524C600.65,220.116 600.445,219.927 600.694,219.802C601.472,219.408 602.232,220.558 602.235,220.569C602.241,220.592 602.104,220.591 602.171,267.501C602.204,290.688 602.521,290.746 601.881,292.654C601.589,293.527 601.494,293.81 594.196,301.209C593.322,302.094 585.68,309.842 583.262,312.257C570.814,324.691 570.915,324.779 569.819,325.845C564.364,331.148 564.009,331.93 555.402,340.399C552.743,343.016 546.68,349.522 546.105,350.094C522.667,373.422 510.983,386.568 509.451,387.395C507.844,388.264 506.336,386.088 502.466,382.538C499.859,380.147 499.768,380.278 497.128,377.926C487.897,369.703 487.992,369.602 487.172,368.908C476.928,360.236 477.196,359.949 471.751,355.208C460.988,345.837 461.227,345.594 460.267,344.81C456.993,342.134 424.364,312.499 420.882,309.133C417.777,306.132 420.228,305.629 422.108,304.052C426.53,300.343 426.491,300.302 426.88,299.986C430.533,297.02 431.185,300.303 441.24,308.809C446.778,313.494 452.213,318.923 454.876,321.077C459.308,324.664 459.049,324.934 463.314,328.72C464.33,329.623 469.886,334.375 471.255,335.74C474.771,339.244 474.917,339.058 478.623,342.358C479.516,343.153 486.497,349.469 488.187,350.894C491.509,353.695 507.248,368.126 507.592,368.277C509.252,369.006 512.482,364.826 516.563,360.56C520.623,356.316 520.588,356.295 520.948,355.934C534.82,342.023 534.72,341.954 573.94,301.922C583.191,292.48 587.408,288.784 588.046,286.412C588.4,285.095 587.934,236.019 588.275,234.457C588.544,233.225 588.562,233.149 598.525,222.524Z" style="fill:rgb(11,28,47);"/>
        </g>
    </g>
    <g id="JEVAMAVI">
    </g>
</svg>
